<svg id="Layer_1" data-name="Layer 1" xmlns="http://www.w3.org/2000/svg" viewBox="0 0 256 256"><defs><style>.cls-1{fill:#ffff3a;}.cls-2{fill:#b4b4b4;}</style></defs><circle class="cls-1" cx="128" cy="128" r="120.5"/><path d="M128,15a113,113,0,0,1,79.9,192.9A113,113,0,1,1,48.1,48.1,112.23,112.23,0,0,1,128,15m0-15A128,128,0,1,0,256,128,128,128,0,0,0,128,0Z"/><circle class="cls-2" cx="127.5" cy="129.5" r="63"/><path d="M127.5,74A55.5,55.5,0,1,1,72,129.5,55.57,55.57,0,0,1,127.5,74m0-15A70.5,70.5,0,1,0,198,129.5,70.49,70.49,0,0,0,127.5,59Z"/></svg>