<svg id="Layer_1" data-name="Layer 1" xmlns="http://www.w3.org/2000/svg" viewBox="0 0 192 256"><defs><style>.cls-1,.cls-3{fill:#b4b4b4;}.cls-2{fill:#fff;}.cls-3,.cls-4{stroke:#000;stroke-miterlimit:10;stroke-width:12px;}.cls-4{fill:none;}</style></defs><circle class="cls-1" cx="96" cy="96" r="88.5"/><path d="M96,15A81,81,0,1,1,15,96,81.1,81.1,0,0,1,96,15M96,0a96,96,0,1,0,96,96A96,96,0,0,0,96,0Z"/><rect class="cls-2" x="55.5" y="186.5" width="81" height="62"/><path d="M129,194v47H63V194h66m15-15H48v77h96V179Z"/><path class="cls-3" d="M80.78,179V102.5s-1.28-19-22.28-19-21,18-21,18-.72,17.44,21.64,17.72,36.86,0,36.86,0"/><path class="cls-3" d="M110.5,179V102.5s1.28-19,22.28-19,21,18,21,18,.72,17.44-21.64,17.72-36.86,0-36.86,0"/><path class="cls-4" d="M55.33,212.5s18.73,8.83,40,8.83S137,212.5,137,212.5"/></svg>