<svg id="Layer_1" data-name="Layer 1" xmlns="http://www.w3.org/2000/svg" viewBox="0 0 192 256"><defs><style>.cls-1{fill:#fff;}</style></defs><rect class="cls-1" x="7.5" y="7.5" width="177" height="241"/><path d="M177,15V241H15V15H177M192,0H0V256H192V0Z"/><path d="M149.34,128.67A130.5,130.5,0,0,1,146,159.38a71.37,71.37,0,0,1-10.22,23.81,48.09,48.09,0,0,1-17,15.38Q108.57,204,94.88,204a50.9,50.9,0,0,1-21.45-4.43,42.59,42.59,0,0,1-16.51-13.65q-6.86-9.21-10.56-23.47t-3.7-33.8a129.09,129.09,0,0,1,3.42-30.78A72.52,72.52,0,0,1,56.3,74a47.51,47.51,0,0,1,17-15.39q10.23-5.45,23.81-5.44a50.9,50.9,0,0,1,21.45,4.43,42.54,42.54,0,0,1,16.51,13.7q6.85,9.27,10.56,23.53T149.34,128.67ZM62.42,128q0,3.48.06,7c0,2.33.17,4.57.39,6.74L125,95.76a52.28,52.28,0,0,0-4.26-10.44,33.28,33.28,0,0,0-6.18-8.15,27.52,27.52,0,0,0-32.4-3.53A30.81,30.81,0,0,0,71.52,84.7a60.67,60.67,0,0,0-6.74,18.19A119.11,119.11,0,0,0,62.42,128Zm67.16,1.35c0-2.55-.1-5.07-.28-7.58s-.39-5-.62-7.36l-62.1,46.16a57.64,57.64,0,0,0,4.26,10.78,32.92,32.92,0,0,0,6.24,8.48,26.7,26.7,0,0,0,8.31,5.5,27.05,27.05,0,0,0,10.61,2,26.65,26.65,0,0,0,13.87-3.71,31,31,0,0,0,10.61-11,59.92,59.92,0,0,0,6.74-18.14A119.11,119.11,0,0,0,129.58,129.34Z"/></svg>