<svg id="Layer_1" data-name="Layer 1" xmlns="http://www.w3.org/2000/svg" viewBox="0 0 252.66 256.19"><defs><style>.cls-1,.cls-3{fill:none;}.cls-2{fill:#fff;}.cls-2,.cls-3{stroke:#000;stroke-linecap:round;stroke-miterlimit:10;stroke-width:15px;}</style></defs><path class="cls-1" d="M256,128" transform="translate(-1.34 0.09)"/><path class="cls-2" d="M246.5,128.5C223,27.32,139.39,7.5,101.5,7.5L11.37,7.41a2.52,2.52,0,0,0-1.69,4.4C24.17,24.77,38.5,67.59,38.5,128.5" transform="translate(-1.34 0.09)"/><path class="cls-2" d="M246.5,127.5c-23.5,101.18-107.11,121-145,121l-90.13.09a2.52,2.52,0,0,1-1.69-4.4c14.49-13,28.82-55.78,28.82-116.69" transform="translate(-1.34 0.09)"/><path class="cls-3" d="M38.5,128.5" transform="translate(-1.34 0.09)"/><path class="cls-3" d="M243,128.72" transform="translate(-1.34 0.09)"/></svg>